<svg width="260" height="64" viewBox="0 0 260 64" fill="none" xmlns="http://www.w3.org/2000/svg" role="img" aria-labelledby="title desc">
  <title id="title">PLASKO SPB</title>
  <desc id="desc">Логотип тестового интернет-магазина PLASKO SPB</desc>
  <rect x="0" y="0" width="260" height="64" rx="18" fill="#0B1020"/>
  <path d="M26 43V20H42.4C47.5 20 51.3 23.1 51.3 27.8C51.3 32.6 47.5 35.8 42.4 35.8H34.2V43H26ZM34.2 29.6H41.1C42.5 29.6 43.2 28.9 43.2 27.8C43.2 26.7 42.5 26.1 41.1 26.1H34.2V29.6Z" fill="white"/>
  <path d="M55.1 43V20H63.4V36.5H78.8V43H55.1Z" fill="white"/>
  <path d="M80 43L91.5 20H101.1L112.6 43H103.8L102 39H90.4L88.6 43H80ZM92.8 33.5H99.6L96.2 26.3L92.8 33.5Z" fill="white"/>
  <path d="M126.3 43.6C119 43.6 114.1 40.7 113.5 35.8H122C122.4 37.4 123.9 38.2 126.6 38.2C129 38.2 130.2 37.6 130.2 36.5C130.2 35.3 128.8 35 125.3 34.4C119.5 33.6 114.4 32.1 114.4 27.1C114.4 22.3 119.1 19.4 126.1 19.4C132.7 19.4 137.3 22.1 138.1 26.9H129.9C129.5 25.5 128.3 24.8 126 24.8C123.9 24.8 122.8 25.4 122.8 26.4C122.8 27.4 124.1 27.8 127.3 28.2C133.3 29 138.8 30.3 138.8 35.9C138.8 40.9 133.9 43.6 126.3 43.6Z" fill="white"/>
  <path d="M143.1 43V20H151.4V29L161.5 20H171.8L159.6 30.6L172.4 43H161.6L153.8 35.3L151.4 37.4V43H143.1Z" fill="white"/>
  <path d="M187.6 43.6C179.6 43.6 173.8 38.8 173.8 31.5C173.8 24.2 179.6 19.4 187.6 19.4C195.6 19.4 201.4 24.2 201.4 31.5C201.4 38.8 195.6 43.6 187.6 43.6ZM187.6 36.8C190.9 36.8 193 34.8 193 31.5C193 28.2 190.9 26.2 187.6 26.2C184.3 26.2 182.2 28.2 182.2 31.5C182.2 34.8 184.3 36.8 187.6 36.8Z" fill="white"/>
  <path d="M211.5 43V20H219.8V43H211.5Z" fill="#40D9FF"/>
  <path d="M225.2 43V20H242.2C247.3 20 251 23.1 251 27.8C251 32.6 247.3 35.8 242.2 35.8H233.5V43H225.2ZM233.5 29.6H240.9C242.3 29.6 243 28.9 243 27.8C243 26.7 242.3 26.1 240.9 26.1H233.5V29.6Z" fill="#40D9FF"/>
  <path d="M210 51H252" stroke="url(#g)" stroke-width="4" stroke-linecap="round"/>
  <path d="M18 51H198" stroke="url(#g2)" stroke-width="3" stroke-linecap="round" opacity=".55"/>
  <defs>
    <linearGradient id="g" x1="210" y1="51" x2="252" y2="51" gradientUnits="userSpaceOnUse"><stop stop-color="#40D9FF"/><stop offset="1" stop-color="#7C3AED"/></linearGradient>
    <linearGradient id="g2" x1="18" y1="51" x2="198" y2="51" gradientUnits="userSpaceOnUse"><stop stop-color="#40D9FF"/><stop offset=".5" stop-color="#22C55E"/><stop offset="1" stop-color="#7C3AED"/></linearGradient>
  </defs>
</svg>
